<mxfile host="app.diagrams.net" modified="2020-09-12T23:28:41.735Z" agent="5.0 (X11)" etag="ctBIZ9SPMbF3FB0G29bk" version="13.6.10" type="github">
  <diagram id="iaoooixoxxCEOx443CpO" name="Page-1">
    <mxGraphModel dx="2422" dy="1382" grid="1" gridSize="10" guides="1" tooltips="1" connect="1" arrows="1" fold="1" page="1" pageScale="1" pageWidth="1000" pageHeight="600" math="0" shadow="0">
      <root>
        <mxCell id="0" />
        <mxCell id="1" parent="0" />
        <mxCell id="SP7x9r9ef0aJPyyGnClM-1" value="" style="endArrow=none;dashed=1;html=1;" parent="1" edge="1">
          <mxGeometry width="50" height="50" relative="1" as="geometry">
            <mxPoint x="-2" y="400" as="sourcePoint" />
            <mxPoint x="1000" y="400" as="targetPoint" />
          </mxGeometry>
        </mxCell>
        <mxCell id="SP7x9r9ef0aJPyyGnClM-2" value="" style="endArrow=none;dashed=1;html=1;" parent="1" edge="1">
          <mxGeometry width="50" height="50" relative="1" as="geometry">
            <mxPoint x="200" y="400" as="sourcePoint" />
            <mxPoint x="200" as="targetPoint" />
          </mxGeometry>
        </mxCell>
        <mxCell id="SP7x9r9ef0aJPyyGnClM-3" value="" style="endArrow=none;dashed=1;html=1;" parent="1" edge="1">
          <mxGeometry width="50" height="50" relative="1" as="geometry">
            <mxPoint x="400" y="400.0000000000002" as="sourcePoint" />
            <mxPoint x="400" as="targetPoint" />
          </mxGeometry>
        </mxCell>
        <mxCell id="SP7x9r9ef0aJPyyGnClM-4" value="" style="endArrow=none;dashed=1;html=1;" parent="1" edge="1">
          <mxGeometry width="50" height="50" relative="1" as="geometry">
            <mxPoint x="600" y="400.0000000000002" as="sourcePoint" />
            <mxPoint x="600" as="targetPoint" />
          </mxGeometry>
        </mxCell>
        <mxCell id="SP7x9r9ef0aJPyyGnClM-5" value="" style="endArrow=none;dashed=1;html=1;" parent="1" edge="1">
          <mxGeometry width="50" height="50" relative="1" as="geometry">
            <mxPoint x="800" y="400.0000000000002" as="sourcePoint" />
            <mxPoint x="800" as="targetPoint" />
          </mxGeometry>
        </mxCell>
        <mxCell id="SP7x9r9ef0aJPyyGnClM-6" value="" style="endArrow=none;dashed=1;html=1;" parent="1" edge="1">
          <mxGeometry width="50" height="50" relative="1" as="geometry">
            <mxPoint x="200" y="200" as="sourcePoint" />
            <mxPoint x="400" y="200" as="targetPoint" />
          </mxGeometry>
        </mxCell>
        <mxCell id="SP7x9r9ef0aJPyyGnClM-7" value="" style="endArrow=none;dashed=1;html=1;" parent="1" edge="1">
          <mxGeometry width="50" height="50" relative="1" as="geometry">
            <mxPoint x="600" y="200" as="sourcePoint" />
            <mxPoint x="800" y="200" as="targetPoint" />
          </mxGeometry>
        </mxCell>
        <mxCell id="D81WwKKhae5LkLpXEdqi-2" value="&lt;h1&gt;Problem&lt;/h1&gt;" style="text;html=1;strokeColor=none;fillColor=none;spacing=5;spacingTop=-20;whiteSpace=wrap;overflow=hidden;rounded=0;" parent="1" vertex="1">
          <mxGeometry width="200" height="40" as="geometry" />
        </mxCell>
        <mxCell id="D81WwKKhae5LkLpXEdqi-3" value="&lt;h1&gt;Solution&lt;br&gt;&lt;/h1&gt;" style="text;html=1;strokeColor=none;fillColor=none;spacing=5;spacingTop=-20;whiteSpace=wrap;overflow=hidden;rounded=0;" parent="1" vertex="1">
          <mxGeometry x="200" width="200" height="40" as="geometry" />
        </mxCell>
        <mxCell id="D81WwKKhae5LkLpXEdqi-4" value="&lt;h1&gt;Unique Value Proposition&lt;br&gt;&lt;/h1&gt;" style="text;html=1;strokeColor=none;fillColor=none;spacing=5;spacingTop=-20;whiteSpace=wrap;overflow=hidden;rounded=0;" parent="1" vertex="1">
          <mxGeometry x="400" width="200" height="70" as="geometry" />
        </mxCell>
        <mxCell id="D81WwKKhae5LkLpXEdqi-5" value="&lt;h1&gt;Unfair Advantage&lt;br&gt;&lt;/h1&gt;" style="text;html=1;strokeColor=none;fillColor=none;spacing=5;spacingTop=-20;whiteSpace=wrap;overflow=hidden;rounded=0;" parent="1" vertex="1">
          <mxGeometry x="600" width="200" height="70" as="geometry" />
        </mxCell>
        <mxCell id="D81WwKKhae5LkLpXEdqi-6" value="&lt;h1&gt;Key Metrics&lt;br&gt;&lt;/h1&gt;" style="text;html=1;strokeColor=none;fillColor=none;spacing=5;spacingTop=-20;whiteSpace=wrap;overflow=hidden;rounded=0;" parent="1" vertex="1">
          <mxGeometry x="200" y="200" width="200" height="40" as="geometry" />
        </mxCell>
        <mxCell id="D81WwKKhae5LkLpXEdqi-7" value="&lt;h1&gt;Channels&lt;br&gt;&lt;/h1&gt;" style="text;html=1;strokeColor=none;fillColor=none;spacing=5;spacingTop=-20;whiteSpace=wrap;overflow=hidden;rounded=0;" parent="1" vertex="1">
          <mxGeometry x="600" y="200" width="200" height="40" as="geometry" />
        </mxCell>
        <mxCell id="D81WwKKhae5LkLpXEdqi-8" value="&lt;h1&gt;Customer Segments&lt;br&gt;&lt;/h1&gt;" style="text;html=1;strokeColor=none;fillColor=none;spacing=5;spacingTop=-20;whiteSpace=wrap;overflow=hidden;rounded=0;" parent="1" vertex="1">
          <mxGeometry x="800" width="200" height="70" as="geometry" />
        </mxCell>
        <mxCell id="D81WwKKhae5LkLpXEdqi-9" value="" style="endArrow=none;dashed=1;html=1;" parent="1" edge="1">
          <mxGeometry width="50" height="50" relative="1" as="geometry">
            <mxPoint x="500" y="400" as="sourcePoint" />
            <mxPoint x="500" y="600" as="targetPoint" />
          </mxGeometry>
        </mxCell>
        <mxCell id="D81WwKKhae5LkLpXEdqi-10" value="&lt;h1&gt;Cost Structure&lt;br&gt;&lt;/h1&gt;" style="text;html=1;strokeColor=none;fillColor=none;spacing=5;spacingTop=-20;whiteSpace=wrap;overflow=hidden;rounded=0;" parent="1" vertex="1">
          <mxGeometry y="400" width="200" height="40" as="geometry" />
        </mxCell>
        <mxCell id="D81WwKKhae5LkLpXEdqi-11" value="&lt;h1&gt;Revenue Streams&lt;br&gt;&lt;/h1&gt;" style="text;html=1;strokeColor=none;fillColor=none;spacing=5;spacingTop=-20;whiteSpace=wrap;overflow=hidden;rounded=0;" parent="1" vertex="1">
          <mxGeometry x="500" y="400" width="260" height="40" as="geometry" />
        </mxCell>
        <mxCell id="D81WwKKhae5LkLpXEdqi-14" value="&lt;div&gt;Text&lt;/div&gt;" style="text;html=1;strokeColor=none;fillColor=none;align=left;verticalAlign=top;whiteSpace=wrap;rounded=0;labelPosition=center;verticalLabelPosition=middle;" parent="1" vertex="1">
          <mxGeometry y="40" width="200" height="360" as="geometry" />
        </mxCell>
        <mxCell id="D81WwKKhae5LkLpXEdqi-16" value="Text" style="text;html=1;strokeColor=none;fillColor=none;align=left;verticalAlign=top;whiteSpace=wrap;rounded=0;labelPosition=center;verticalLabelPosition=middle;" parent="1" vertex="1">
          <mxGeometry x="800" y="80" width="200" height="320" as="geometry" />
        </mxCell>
        <mxCell id="D81WwKKhae5LkLpXEdqi-17" value="Text" style="text;html=1;strokeColor=none;fillColor=none;align=left;verticalAlign=top;whiteSpace=wrap;rounded=0;labelPosition=center;verticalLabelPosition=middle;" parent="1" vertex="1">
          <mxGeometry x="400" y="80" width="200" height="320" as="geometry" />
        </mxCell>
        <mxCell id="D81WwKKhae5LkLpXEdqi-18" value="Text" style="text;html=1;strokeColor=none;fillColor=none;align=left;verticalAlign=top;whiteSpace=wrap;rounded=0;labelPosition=center;verticalLabelPosition=middle;" parent="1" vertex="1">
          <mxGeometry x="200" y="240" width="200" height="160" as="geometry" />
        </mxCell>
        <mxCell id="D81WwKKhae5LkLpXEdqi-19" value="Text" style="text;html=1;strokeColor=none;fillColor=none;align=left;verticalAlign=top;whiteSpace=wrap;rounded=0;labelPosition=center;verticalLabelPosition=middle;" parent="1" vertex="1">
          <mxGeometry x="200" y="40" width="200" height="160" as="geometry" />
        </mxCell>
        <mxCell id="D81WwKKhae5LkLpXEdqi-20" value="Text" style="text;html=1;strokeColor=none;fillColor=none;align=left;verticalAlign=top;whiteSpace=wrap;rounded=0;labelPosition=center;verticalLabelPosition=middle;" parent="1" vertex="1">
          <mxGeometry x="600" y="240" width="200" height="160" as="geometry" />
        </mxCell>
        <mxCell id="D81WwKKhae5LkLpXEdqi-21" value="Text" style="text;html=1;strokeColor=none;fillColor=none;align=left;verticalAlign=top;whiteSpace=wrap;rounded=0;labelPosition=center;verticalLabelPosition=middle;" parent="1" vertex="1">
          <mxGeometry x="600" y="80" width="200" height="120" as="geometry" />
        </mxCell>
        <mxCell id="D81WwKKhae5LkLpXEdqi-22" value="Text" style="text;html=1;strokeColor=none;fillColor=none;align=left;verticalAlign=top;whiteSpace=wrap;rounded=0;labelPosition=center;verticalLabelPosition=middle;" parent="1" vertex="1">
          <mxGeometry y="440" width="500" height="160" as="geometry" />
        </mxCell>
        <mxCell id="D81WwKKhae5LkLpXEdqi-23" value="Text" style="text;html=1;strokeColor=none;fillColor=none;align=left;verticalAlign=top;whiteSpace=wrap;rounded=0;labelPosition=center;verticalLabelPosition=middle;" parent="1" vertex="1">
          <mxGeometry x="500" y="440" width="500" height="160" as="geometry" />
        </mxCell>
      </root>
    </mxGraphModel>
  </diagram>
</mxfile>
